<svg xmlns="http://www.w3.org/2000/svg" aria-hidden="true" style="position:absolute;width:0;height:0;overflow:hidden">
  <defs>
    <symbol id="icon-calendar" viewBox="0 0 32 32">
      <path d="M7 0a.997.997 0 0 1 1 1v1h16V1a.997.997 0 0 1 1-1 .997.997 0 0 1 1 1v1h2a4.003 4.003 0 0 1 4 4v22a4.003 4.003 0 0 1-4 4H4a4.003 4.003 0 0 1-4-4V6a4.003 4.003 0 0 1 4-4h2V1a.997.997 0 0 1 1-1M4 4a2 2 0 0 0-2 2v22a2 2 0 0 0 2 2h24a2 2 0 0 0 2-2V6a2 2 0 0 0-2-2z"/>
      <path d="M5 8a.997.997 0 0 1 1-1h20a.997.997 0 0 1 1 1v2a.997.997 0 0 1-1 1H6a.997.997 0 0 1-1-1zm17 7a.997.997 0 0 1 1-1h2a.997.997 0 0 1 1 1v2a.997.997 0 0 1-1 1h-2a.997.997 0 0 1-1-1zm-6 0a.997.997 0 0 1 1-1h2a.997.997 0 0 1 1 1v2a.997.997 0 0 1-1 1h-2a.997.997 0 0 1-1-1zM6 21a.997.997 0 0 1 1-1h2a.997.997 0 0 1 1 1v2a.997.997 0 0 1-1 1H7a.997.997 0 0 1-1-1zm6 0a.997.997 0 0 1 1-1h2a.997.997 0 0 1 1 1v2a.997.997 0 0 1-1 1h-2a.997.997 0 0 1-1-1z"/>
    </symbol>
    <symbol id="icon-car" viewBox="0 0 32 32">
      <path d="M8 18a2 2 0 1 1-4.001-.001A2 2 0 0 1 8 18m20 0a2 2 0 1 1-4.001-.001A2 2 0 0 1 28 18m-16-2a2 2 0 0 0 0 4h8a2 2 0 0 0 0-4zM9.724 8.552 7.812 12.38a1.02 1.02 0 0 0 .994 1.461c1.82-.146 4.7-.34 7.194-.34s5.376.194 7.194.34a1.018 1.018 0 0 0 .994-1.461l-1.912-3.826A1 1 0 0 0 21.382 8H10.618a1 1 0 0 0-.894.552"/>
      <path d="M5.04 7.03A5 5 0 0 1 9.64 4h12.724a5 5 0 0 1 4.596 3.03l1.584 3.696c.15.35.42.638.76.808 1 .5 1.71 1.43 1.93 2.524l.67 3.358q.1.484.098.98v.826a4.97 4.97 0 0 1-2 3.994V27a.997.997 0 0 1-1 1h-4a.997.997 0 0 1-1-1v-2.676c-2.584.096-5.49.176-8 .176s-5.416-.08-8-.176V27a.997.997 0 0 1-1 1h-4a.997.997 0 0 1-1-1v-3.784a4.97 4.97 0 0 1-2-3.994v-.826q0-.495.098-.98l.67-3.36a3.62 3.62 0 0 1 1.928-2.522 1.6 1.6 0 0 0 .762-.808L5.044 7.03zM9.64 6a3 3 0 0 0-2.758 1.82l-1.584 3.694a3.6 3.6 0 0 1-1.706 1.808 1.6 1.6 0 0 0-.86 1.128l-.672 3.358q-.058.291-.06.588v.826a2.96 2.96 0 0 0 2.816 2.968c3.11.14 7.572.31 11.184.31s8.074-.168 11.184-.31A2.957 2.957 0 0 0 30 19.222v-.826q0-.295-.06-.588l-.67-3.36a1.611 1.611 0 0 0-.86-1.126 3.6 3.6 0 0 1-1.706-1.808L25.12 7.818A3.006 3.006 0 0 0 22.36 6z"/>
    </symbol>
    <symbol id="icon-check-circle" viewBox="0 0 32 32">
      <path d="M16 30A14.002 14.002 0 0 1 2 16a13.998 13.998 0 1 1 23.899 9.899A14 14 0 0 1 16 30m0 2a15.997 15.997 0 0 0 16-16A15.997 15.997 0 0 0 16 0 15.997 15.997 0 0 0 0 16a15.997 15.997 0 0 0 16 16"/>
      <path d="m21.94 9.94-.04.044-6.946 8.85-4.186-4.188a1.497 1.497 0 0 0-2.083.037 1.5 1.5 0 0 0-.037 2.083l5.292 5.294q.216.215.499.33c.283.115.387.112.588.108a1.5 1.5 0 0 0 1.071-.478l7.984-9.98a1.502 1.502 0 0 0-1.09-2.535 1.5 1.5 0 0 0-1.052.435"/>
    </symbol>
    <symbol id="icon-fuel-pump" viewBox="0 0 32 32">
      <path d="M6 5a.997.997 0 0 1 1-1h10a.997.997 0 0 1 1 1v10a.997.997 0 0 1-1 1H7a.997.997 0 0 1-1-1z"/>
      <path d="M2 4a4.003 4.003 0 0 1 4-4h12a4.003 4.003 0 0 1 4 4v16a4.003 4.003 0 0 1 4 4v1a.997.997 0 0 0 1 1 .997.997 0 0 0 1-1v-9h-1a.997.997 0 0 1-1-1V8.75a.997.997 0 0 1 1-1h2.99c-.022-.952-.106-1.788-.402-2.444a1.94 1.94 0 0 0-.788-.916C28.432 4.17 27.872 4 27 4a.997.997 0 0 1-1-1 .997.997 0 0 1 1-1q1.692-.004 2.824.672c.766.456 1.268 1.102 1.588 1.814.59 1.31.588 2.93.588 4.162v6.35a.99.99 0 0 1-.293.708 1 1 0 0 1-.708.293h-1v9a3.004 3.004 0 0 1-3 3 3.004 3.004 0 0 1-3-3v-1a2 2 0 0 0-2-2v8h1a.997.997 0 0 1 1 1 .997.997 0 0 1-1 1h-22a.997.997 0 0 1-1-1 .997.997 0 0 1 1-1h1zm18 0a2 2 0 0 0-2-2H6a2 2 0 0 0-2 2v26h16z"/>
    </symbol>
    <symbol id="icon-gear" viewBox="0 0 32 32">
      <path d="M16 9.508a6.49 6.49 0 1 0 6.492 6.49 6.5 6.5 0 0 0-1.901-4.591A6.5 6.5 0 0 0 16 9.506zM11.508 16A4.49 4.49 0 0 1 16 11.508 4.49 4.49 0 0 1 20.492 16 4.49 4.49 0 0 1 16 20.492 4.49 4.49 0 0 1 11.508 16"/>
      <path d="M19.592 2.686c-1.054-3.58-6.13-3.58-7.184 0l-.188.638a1.75 1.75 0 0 1-1.006 1.12 1.76 1.76 0 0 1-1.504-.079l-.584-.32c-3.28-1.784-6.866 1.804-5.08 5.082l.318.584a1.746 1.746 0 0 1-1.041 2.51l-.638.188c-3.58 1.054-3.58 6.13 0 7.184l.638.188a1.75 1.75 0 0 1 1.12 1.006 1.76 1.76 0 0 1-.079 1.504l-.32.584c-1.784 3.28 1.802 6.868 5.082 5.08l.584-.318a1.746 1.746 0 0 1 2.51 1.04l.188.638c1.054 3.58 6.13 3.58 7.184 0l.188-.638a1.75 1.75 0 0 1 1.006-1.12 1.74 1.74 0 0 1 1.504.08l.584.32c3.28 1.786 6.868-1.804 5.08-5.082l-.318-.584a1.746 1.746 0 0 1 1.04-2.51l.638-.188c3.58-1.054 3.58-6.13 0-7.184l-.638-.188a1.75 1.75 0 0 1-1.12-1.006 1.74 1.74 0 0 1 .08-1.504l.32-.584c1.786-3.28-1.804-6.866-5.082-5.08l-.584.318a1.746 1.746 0 0 1-2.51-1.041zm-5.266.566c.492-1.67 2.856-1.67 3.348 0l.188.638a3.748 3.748 0 0 0 5.385 2.23l.582-.32c1.528-.83 3.2.84 2.368 2.37l-.318.584a3.74 3.74 0 0 0-.17 3.225 3.75 3.75 0 0 0 2.403 2.159l.636.188c1.67.492 1.67 2.856 0 3.348l-.638.188a3.748 3.748 0 0 0-2.23 5.385l.32.582c.83 1.528-.84 3.2-2.37 2.368l-.582-.318a3.76 3.76 0 0 0-3.227-.171 3.746 3.746 0 0 0-2.159 2.403l-.188.636c-.492 1.67-2.856 1.67-3.348 0l-.188-.638a3.74 3.74 0 0 0-2.16-2.401 3.75 3.75 0 0 0-3.225.171l-.584.32c-1.528.83-3.2-.84-2.368-2.37l.318-.582c.268-.491.423-1.036.452-1.594s-.066-1.116-.279-1.633a3.75 3.75 0 0 0-2.404-2.161l-.638-.188c-1.67-.492-1.67-2.856 0-3.348l.638-.188a3.742 3.742 0 0 0 2.229-5.382l-.32-.584c-.83-1.528.84-3.2 2.37-2.368l.584.318a3.76 3.76 0 0 0 3.225.171 3.75 3.75 0 0 0 2.16-2.401l.188-.638z"/>
    </symbol>
    <symbol id="icon-Location" viewBox="0 0 32 32">
      <path d="M23.061 16.762c-.982 1.991-2.314 3.975-3.675 5.756a60 60 0 0 1-4.136 4.819 60 60 0 0 1-4.136-4.819c-1.361-1.781-2.692-3.765-3.675-5.756-.994-2.012-1.564-3.896-1.564-5.512a9.376 9.376 0 0 1 18.75 0c0 1.616-.572 3.501-1.564 5.512M15.25 30S26.5 19.339 26.5 11.25a11.249 11.249 0 1 0-22.5 0C4 19.339 15.25 30 15.25 30"/>
      <path d="M15.25 15a3.75 3.75 0 0 1-3.75-3.75 3.75 3.75 0 0 1 3.75-3.75A3.75 3.75 0 0 1 19 11.25 3.75 3.75 0 0 1 15.25 15m0 1.875a5.63 5.63 0 0 0 5.625-5.625 5.63 5.63 0 0 0-5.625-5.625 5.63 5.63 0 0 0-5.625 5.625 5.63 5.63 0 0 0 5.625 5.625"/>
    </symbol>
    <symbol id="icon-Logo" viewBox="0 0 208 32">
      <path fill="#3470ff" d="M202.142 15.291q-2.049 0-3.744.236c-1.695.236-2.351.473-3.665.946v15.054h-6.857V9.143h5.084l1.025 2.64q2.049-1.655 4.02-2.365c1.971-.71 2.694-.709 4.138-.709v6.581zM184.597 31.291q-1.262.276-2.246.394a18 18 0 0 1-2.246.118q-3.783 0-4.965-2.443-1.655 1.221-3.31 1.852c-1.655.631-2.312.631-3.626.631q-1.773 0-3.192-.749c-1.419-.749-1.681-1.169-2.207-2.01a5.1 5.1 0 0 1-.788-2.759q0-2.523 1.261-3.98 1.3-1.497 3.468-2.365 2.168-.906 6.581-2.167l1.182-.355V17.3q0-3.626-3.31-3.626-1.616 0-3.468.709c-1.852.709-2.653 1.235-4.256 2.286l-1.301-4.729a27.5 27.5 0 0 1 5.438-2.404q2.798-.867 5.911-.867 3.783 0 5.793 2.049 2.049 2.049 2.049 7.015v7.488q0 .867.355 1.261.355.355 1.143.355.748 0 1.497-.197l.237 4.65zm-15.724-5.872q0 .787.394 1.143.434.355 1.34.355 1.655 0 3.901-1.419v-4.177l-.591.197q-2.956 1.064-4.02 1.892-1.025.788-1.025 2.01zM150.364 32q-4.887 0-8.276-1.892-3.389-1.93-5.084-5.084-1.655-3.192-1.655-6.936 0-3.704 1.734-6.857 1.773-3.153 5.241-5.044c3.468-1.891 5.097-1.892 8.355-1.892q4.572 0 8.039 1.773l-1.419 4.966a16 16 0 0 0-3.034-1.182q-1.576-.473-3.586-.473-2.562 0-4.453 1.182-1.853 1.143-2.837 3.153-.946 1.97-.946 4.414 0 3.863 2.049 6.345 2.049 2.443 5.872 2.443 3.271 0 7.054-1.616l1.34 4.847q-1.616.827-3.862 1.34c-2.246.513-3.008.512-4.532.512z" style="fill:var(--color1, #3470ff)"/>
      <path fill="#101828" d="M123.567 0h6.857v31.527h-6.857zM120.288 31.291q-1.262.276-2.246.394a18 18 0 0 1-2.246.118q-3.783 0-4.966-2.443-1.655 1.221-3.31 1.852c-1.655.631-2.312.631-3.626.631q-1.773 0-3.192-.749c-1.419-.749-1.682-1.169-2.207-2.01a5.1 5.1 0 0 1-.788-2.759q0-2.523 1.261-3.98 1.3-1.497 3.468-2.365 2.168-.906 6.581-2.167l1.182-.355V17.3q0-3.626-3.31-3.626-1.615 0-3.468.709c-1.853.709-2.654 1.235-4.256 2.286l-1.301-4.729a27.5 27.5 0 0 1 5.439-2.404q2.798-.867 5.911-.867 3.783 0 5.793 2.049 2.049 2.049 2.049 7.015v7.488q0 .867.355 1.261.354.355 1.143.355.748 0 1.498-.197l.236 4.65zm-15.724-5.872q0 .787.394 1.143.434.355 1.34.355 1.655 0 3.901-1.419v-4.177l-.591.197q-2.955 1.064-4.02 1.892-1.025.788-1.025 2.01zM95.248 30.069q-1.182.827-2.838 1.301a12.1 12.1 0 0 1-3.153.433q-4.177 0-6.227-1.813-2.049-1.852-2.049-5.281V13.99h-3.35v-2.877l4.217-1.695 1.892-6.03h4.098v5.754h6.305v4.847h-6.305v9.064q0 2.089.67 2.956c.67.867 1.117.867 2.01.867q1.734 0 3.665-1.025zM66.38 8.67q4.374 0 6.03 2.325 1.695 2.325 1.695 6.7v13.833h-6.857V18.562q0-2.758-.67-3.823-.63-1.064-2.483-1.064-2.01 0-4.098 1.34v16.512H53.14V9.143h5.084l.709 1.852q3.863-2.325 7.448-2.325zM34.057 21.596q.197 2.798 1.379 4.138c1.182 1.34 1.997 1.34 3.626 1.34q1.813 0 3.35-.63 1.576-.67 3.586-1.97l1.852 4.335q-2.089 1.695-4.138 2.443c-2.049.748-2.929.749-4.69.749q-3.902 0-6.542-1.498-2.64-1.537-3.941-4.138-1.261-2.64-1.261-5.99 0-5.32 2.995-8.512c2.995-3.192 4.913-3.192 8.749-3.192q4.572 0 6.936 2.483 2.404 2.444 2.443 6.975a12 12 0 0 1-.512 3.468zm7.684-4.453q.039-.237.039-.631-.039-1.616-.867-2.443-.828-.867-2.286-.867-3.468 0-4.335 3.941zM10.877 21.675H7.094v9.852H0V4.729h10.719q5.754 0 8.394 1.97 2.64 1.931 2.64 6.108 0 5.439-3.98 7.291L25.3 31.527h-8.197zm-3.783-4.926h3.626q2.088 0 2.995-.867.946-.867.946-2.68 0-1.891-.906-2.719c-.906-.828-1.616-.828-3.034-.828H7.095v7.094z" style="fill:var(--color2, #101828)"/>
    </symbol>
    <symbol id="icon-Up-arrow" viewBox="0 0 32 32">
      <path d="M14.293 8.294a1 1 0 0 1 .708-.293 1 1 0 0 1 .708.293l12 12a1 1 0 0 1-.708 1.709 1 1 0 0 1-.708-.293L15.001 10.416 3.709 21.71A1 1 0 0 1 2 21.002a1 1 0 0 1 .293-.708z"/>
    </symbol>
    <symbol id="icon-Active" viewBox="0 0 32 32">
      <path fill="#3470ff" d="M16 2.628C24.876-6.496 47.068 9.47 16 30-15.068 9.472 7.124-6.496 16 2.628" style="fill:var(--color1, #3470ff)"/>
    </symbol>
    <symbol id="icon-Down-arrow" viewBox="0 0 32 32">
      <path d="M2.294 8.294a1 1 0 0 1 .708-.293 1 1 0 0 1 .708.293l11.292 11.294L26.294 8.294a1 1 0 0 1 .708-.293 1.01 1.01 0 0 1 .925.618 1.01 1.01 0 0 1-.217 1.091l-12 12a1 1 0 0 1-.708.293 1 1 0 0 1-.708-.293l-12-12a1 1 0 0 1-.293-.708 1 1 0 0 1 .293-.708"/>
    </symbol>
    <symbol id="icon-Default" viewBox="0 0 32 32">
      <path fill="#f2f4f7" d="m16 5.496-1.434-1.474C11.2.562 5.028 1.756 2.8 6.106c-1.046 2.046-1.282 5 .628 8.77C5.268 18.506 9.096 22.854 16 27.59c6.904-4.736 10.73-9.084 12.572-12.714 1.91-3.772 1.676-6.724.628-8.77C26.972 1.756 20.8.56 17.434 4.02zM16 30C-14.666 9.736 6.558-6.08 15.648 2.286q.18.167.352.342a6 6 0 0 1 .352-.34C25.44-6.084 46.666 9.734 16 30" style="fill:var(--color3, #f2f4f7)"/>
    </symbol>
  </defs>
</svg>
